<mxfile host="app.diagrams.net" modified="2023-10-26T13:49:32.884Z" agent="Mozilla/5.0 (Windows NT 10.0; Win64; x64) AppleWebKit/537.36 (KHTML, like Gecko) Chrome/118.0.0.0 Safari/537.36 Edg/118.0.2088.69" etag="iawWOIUzz4VbPryeXhOU" version="22.0.8" type="github">
  <diagram name="第 1 页" id="3-X8c7FFPBdBOCeyTaGA">
    <mxGraphModel dx="1002" dy="535" grid="1" gridSize="10" guides="1" tooltips="1" connect="1" arrows="1" fold="1" page="1" pageScale="1" pageWidth="827" pageHeight="1169" math="0" shadow="0">
      <root>
        <mxCell id="0" />
        <mxCell id="1" parent="0" />
        <mxCell id="L9GxHJ4bUL139dS-fuSp-4" value="big mom:&lt;br&gt;&lt;b&gt;&lt;u&gt;學生&lt;/u&gt;&lt;/b&gt;" style="html=1;whiteSpace=wrap;fillColor=#ffff88;strokeColor=#36393d;" vertex="1" parent="1">
          <mxGeometry x="100" y="100" width="110" height="50" as="geometry" />
        </mxCell>
        <mxCell id="L9GxHJ4bUL139dS-fuSp-12" value="703:card:&lt;br&gt;&lt;b&gt;&lt;u&gt;no&lt;/u&gt;&lt;/b&gt;" style="html=1;whiteSpace=wrap;fillColor=#ffff88;strokeColor=#36393d;" vertex="1" parent="1">
          <mxGeometry x="359" y="100" width="110" height="50" as="geometry" />
        </mxCell>
        <mxCell id="L9GxHJ4bUL139dS-fuSp-13" value="索隆:&lt;br&gt;&lt;b&gt;&lt;u&gt;操作員&lt;/u&gt;&lt;/b&gt;" style="html=1;whiteSpace=wrap;fillColor=#ffff88;strokeColor=#36393d;" vertex="1" parent="1">
          <mxGeometry x="370" y="260" width="110" height="50" as="geometry" />
        </mxCell>
        <mxCell id="L9GxHJ4bUL139dS-fuSp-14" value="703:&lt;br&gt;&lt;b&gt;&lt;u&gt;充值&lt;/u&gt;&lt;/b&gt;" style="html=1;whiteSpace=wrap;fillColor=#ffff88;strokeColor=#36393d;" vertex="1" parent="1">
          <mxGeometry x="370" y="380" width="110" height="50" as="geometry" />
        </mxCell>
        <mxCell id="L9GxHJ4bUL139dS-fuSp-15" value="喬巴:&lt;br&gt;&lt;u&gt;一&lt;b style=&quot;&quot;&gt;般用戶&lt;/b&gt;&lt;/u&gt;" style="html=1;whiteSpace=wrap;fillColor=#ffff88;strokeColor=#36393d;" vertex="1" parent="1">
          <mxGeometry x="140" y="250" width="110" height="50" as="geometry" />
        </mxCell>
        <mxCell id="L9GxHJ4bUL139dS-fuSp-16" value="703上機:&lt;br&gt;&lt;b&gt;&lt;u&gt;online&lt;/u&gt;&lt;/b&gt;" style="html=1;whiteSpace=wrap;fillColor=#ffff88;strokeColor=#36393d;" vertex="1" parent="1">
          <mxGeometry x="80" y="370" width="110" height="50" as="geometry" />
        </mxCell>
        <mxCell id="L9GxHJ4bUL139dS-fuSp-17" value="路飛:&lt;br&gt;&lt;b&gt;&lt;u&gt;管理員&lt;/u&gt;&lt;/b&gt;" style="html=1;whiteSpace=wrap;fillColor=#ffff88;strokeColor=#36393d;" vertex="1" parent="1">
          <mxGeometry x="580" y="230" width="110" height="50" as="geometry" />
        </mxCell>
        <mxCell id="L9GxHJ4bUL139dS-fuSp-18" value="今日帳單:&lt;br&gt;&lt;b&gt;&lt;u&gt;CheceDay&lt;/u&gt;&lt;/b&gt;" style="html=1;whiteSpace=wrap;fillColor=#ffff88;strokeColor=#36393d;" vertex="1" parent="1">
          <mxGeometry x="600" y="370" width="110" height="50" as="geometry" />
        </mxCell>
        <mxCell id="L9GxHJ4bUL139dS-fuSp-19" value="" style="endArrow=none;html=1;rounded=0;entryX=0.5;entryY=1;entryDx=0;entryDy=0;strokeColor=#fa0505;" edge="1" parent="1" target="L9GxHJ4bUL139dS-fuSp-12">
          <mxGeometry width="50" height="50" relative="1" as="geometry">
            <mxPoint x="190" y="250" as="sourcePoint" />
            <mxPoint x="240" y="200" as="targetPoint" />
          </mxGeometry>
        </mxCell>
        <mxCell id="L9GxHJ4bUL139dS-fuSp-20" value="" style="endArrow=none;html=1;rounded=0;entryX=0.75;entryY=1;entryDx=0;entryDy=0;strokeColor=#f60404;" edge="1" parent="1" target="L9GxHJ4bUL139dS-fuSp-12">
          <mxGeometry width="50" height="50" relative="1" as="geometry">
            <mxPoint x="630" y="230" as="sourcePoint" />
            <mxPoint x="680" y="180" as="targetPoint" />
          </mxGeometry>
        </mxCell>
        <mxCell id="L9GxHJ4bUL139dS-fuSp-21" value="" style="endArrow=none;html=1;rounded=0;exitX=0.5;exitY=0;exitDx=0;exitDy=0;strokeColor=#fb0909;" edge="1" parent="1" source="L9GxHJ4bUL139dS-fuSp-14">
          <mxGeometry width="50" height="50" relative="1" as="geometry">
            <mxPoint x="384" y="400" as="sourcePoint" />
            <mxPoint x="414" y="310" as="targetPoint" />
          </mxGeometry>
        </mxCell>
        <mxCell id="L9GxHJ4bUL139dS-fuSp-22" value="" style="endArrow=none;html=1;rounded=0;strokeColor=#f90606;" edge="1" parent="1">
          <mxGeometry width="50" height="50" relative="1" as="geometry">
            <mxPoint x="414" y="260" as="sourcePoint" />
            <mxPoint x="428" y="150" as="targetPoint" />
          </mxGeometry>
        </mxCell>
        <mxCell id="L9GxHJ4bUL139dS-fuSp-23" value="" style="endArrow=none;html=1;rounded=0;entryX=0.5;entryY=1;entryDx=0;entryDy=0;strokeColor=#ff0000;" edge="1" parent="1" target="L9GxHJ4bUL139dS-fuSp-15">
          <mxGeometry width="50" height="50" relative="1" as="geometry">
            <mxPoint x="130" y="370" as="sourcePoint" />
            <mxPoint x="180" y="320" as="targetPoint" />
          </mxGeometry>
        </mxCell>
        <mxCell id="L9GxHJ4bUL139dS-fuSp-24" value="" style="endArrow=none;html=1;rounded=0;entryX=0;entryY=0.5;entryDx=0;entryDy=0;exitX=1;exitY=0.4;exitDx=0;exitDy=0;exitPerimeter=0;strokeColor=#f60404;" edge="1" parent="1" source="L9GxHJ4bUL139dS-fuSp-4" target="L9GxHJ4bUL139dS-fuSp-12">
          <mxGeometry width="50" height="50" relative="1" as="geometry">
            <mxPoint x="210" y="130" as="sourcePoint" />
            <mxPoint x="260" y="80" as="targetPoint" />
          </mxGeometry>
        </mxCell>
        <mxCell id="L9GxHJ4bUL139dS-fuSp-26" value="" style="endArrow=none;html=1;rounded=0;entryX=0.5;entryY=1;entryDx=0;entryDy=0;strokeColor=#f20707;" edge="1" parent="1" target="L9GxHJ4bUL139dS-fuSp-17">
          <mxGeometry width="50" height="50" relative="1" as="geometry">
            <mxPoint x="660" y="370" as="sourcePoint" />
            <mxPoint x="710" y="320" as="targetPoint" />
          </mxGeometry>
        </mxCell>
      </root>
    </mxGraphModel>
  </diagram>
</mxfile>
